<!DOCTYPE svg PUBLIC "-//W3C//DTD SVG 1.1//EN" "http://www.w3.org/Graphics/SVG/1.1/DTD/svg11.dtd" [
	<!ENTITY ns_flows "http://ns.adobe.com/Flows/1.0/">
]><svg xmlns="http://www.w3.org/2000/svg" width="350" height="165" viewBox="-0.881 -0.942 350 165" enable-background="new -0.881 -0.942 350 165"><path fill="#685546" fill-rule="evenodd" d="M186.12 82.02c0-45.15 36.6-81.74 81.74-81.74 45.15 0 81.22 36.6 81.22 81.74s-36.07 81.74-81.22 81.74c-45.14 0-81.74-36.6-81.74-81.74z" clip-rule="evenodd"/><path fill="#FFD300" fill-rule="evenodd" d="M274.3 120.83h9.07v-61.3h-9.18v46.4c0 3.08 0 7.55-4.83 7.55-4.02 0-4.02-3.32-4.02-5.96v-48h-9.42v49.72c0 4.13 0 12.74 9.3 12.74 5.05 0 7.47-3 9.07-5.05v3.9zM291.42 120.83h5.17c.56-2.4.8-3 2.05-5.17.8 2.07 2.53 6.2 8.84 6.2 11.24 0 11.24-11.7 11.24-14v-38.8c0-1.96-.23-4.6-1.6-6.78-1.5-2.3-4.25-3.8-7.7-3.8-5.74 0-8.03 3.8-8.84 5.18V39.78h-9.18v81.05zm18.02-12.63c0 3.1-1.5 5.28-4.47 5.28-4.37 0-4.37-3.44-4.37-6.54V72.6c0-1.6.35-5.96 4.83-5.96 4.02 0 4.02 3.33 4.02 5.17v36.4z" clip-rule="evenodd"/><path fill="#fff" fill-rule="evenodd" d="M256.13 54.28h11.32v-3.1h-7.36V39.83h-3.97zM279.43 49.88c-.55 1.2-1.65 1.83-3.22 1.83-2.63 0-3.77-2.03-3.77-3.36v-.06h11.36v-.4c0-5.3-2.48-8.35-7.6-8.35-4.66 0-7.78 2.25-7.78 7.53s3.12 7.52 7.8 7.52c3.53 0 6.22-1.4 7.34-4.7h-4.13zm-7-4.3v-.07c0-.32.63-3.1 3.7-3.1 2.83 0 3.65 2.36 3.65 3.12v.05h-7.35z" clip-rule="evenodd"/><path fill="#FFD300" d="M239.04 39.78h9.2v81.05h-9.2v-40.3h-8.83v40.3h-9.18V39.78h9.2v31.56h8.82z"/><circle cx="81.835" cy="81.836" r="81.836" fill="#FFD300" fill-rule="evenodd" clip-rule="evenodd"/><path fill="#fff" d="M122.64 76.67c-1.7 0-2.5 3-2 7.45.64 5.4 5.46 5.4 8.73 4.03v2.67c-2 .54-3.65.68-5.07.68-8.24 0-9.08-6.78-9.08-8.8 0-3.44 1.22-8.2 7.75-8.2 4.33 0 6.8 2.82 6.84 6.6h-5.2c0-2.36-.5-4.43-1.96-4.43zM140.13 80.55v-.34c-.07-1.64-.4-3.53-1.82-3.53-1.36 0-1.83 1.6-2.02 3.78v.1h3.84zm5.5 2.36h-9.42v.1c.34 6.67 5.3 6.53 8.8 5.14v2.68c-2 .54-3.4.68-4.95.68-8 0-9.2-5.95-9.2-9 0-3.5 1.53-8 7.65-8 4.52 0 7.13 2.85 7.13 6.8v1.6zM89.3 88.75l-.03-6.28h-.1c-1.36.13-3.33.74-3.33 3.46 0 2.54 1.24 2.77 2.4 2.8l1.05.02zM94.72 91h-8.8c-3.26 0-5.6-1.33-5.6-4.93.02-2.92 1.7-4.33 3.66-5 .97-.35 2.02-.5 2.94-.6.93-.06 1.73-.05 2.23-.05h.1v-.5c0-3.77-3.75-3.37-5.88-2.75-.4.12-.78.26-1.1.4l.02-2.48c1.87-.45 3.15-.6 5.14-.6 4.7 0 7.27 2.2 7.27 5.9V91z"/><path fill="#685546" d="M52.38 91V75.05h5.46V91z"/><path fill="#fff" d="M80.24 76.86c-1.3.06-3.26.5-3.26 3.52V91H71.5l.02-10.8c0-3.23 2.97-5.7 7.6-5.7h1.12v2.36zM71.43 68.33v2.3c-.54 0-1.08 0-1.6.05-.54.04-1.06.13-1.5.32-.92.38-1.54 1.16-1.54 2.7v1.35h3.84v2.34h-3.86V91h-5.45V74.95c0-5.93 4.07-6.63 9-6.63h1.1zM112.8 91h-5.5v-9.6c0-3.8-1.44-4-3.44-4h-.38V91H98V74.98c.45.03 1.93.07 6.86.07 7.9 0 7.93 3.67 7.93 6.65V91z"/><circle cx="55.111" cy="68.241" r="3.516" fill="#685546"/><ellipse cx="55.111" cy="97.828" fill="#fff" rx="3.512" ry="3.517"/><path fill="#685546" d="M27.3 82.83c0-3.48-.82-5.62-3.32-5.62h-.45v11.6h.53c2.43 0 3.23-2.33 3.23-5.97zM18.03 91V68.33h5.5v6.72h1.73c3.8 0 5.68 1.5 6.62 3.2.93 1.7.93 3.66.93 4.62 0 2.53-.8 8.13-7.07 8.13h-7.72zM40.7 77.2v11.6h.45c2.5 0 3.3-2.14 3.3-5.63 0-3.64-.8-5.96-3.22-5.96h-.53zM50 83.2c0 .96 0 2.9-.94 4.63-.94 1.7-2.82 3.2-6.62 3.2H40.7v6.72h-5.5V75.05h7.73c6.27 0 7.07 5.6 7.07 8.13z"/></svg>